<svg xmlns="http://www.w3.org/2000/svg" version="1.0" preserveAspectRatio="xMidYMid meet" viewBox="107 101 2396.05 671">

<g transform="translate(0.000000,799.000000) scale(0.100000,-0.100000)" fill="#000000" stroke="none">
<path d="M8830 4950 l0 -2030 1903 0 c1904 0 2313 6 2483 35 424 73 622 281 696 730 20 123 17 553 -5 679 -40 226 -110 360 -241 460 -91 68 -215 120 -356 149 l-64 13 77 28 c147 53 269 151 338 271 38 65 75 183 96 303 24 140 23 516 -1 672 -66 429 -266 620 -718 685 -179 26 -752 34 -2560 34 l-1648 1 0 -2030z m3562 1050 c87 -21 146 -79 169 -164 16 -60 13 -206 -5 -270 -22 -76 -74 -129 -146 -150 -109 -31 -281 -36 -1342 -36 l-1058 0 0 321 0 321 1168 -5 c848 -4 1180 -8 1214 -17z m103 -1450 c144 -21 205 -80 227 -223 9 -58 9 -98 0 -161 -18 -138 -58 -194 -169 -236 -54 -21 -83 -23 -398 -31 -187 -4 -746 -8 -1242 -8 l-903 -1 0 335 0 335 1208 0 c745 0 1234 -4 1277 -10z"/>
<path d="M16137 6973 c-3 -5 -474 -894 -1047 -1978 -573 -1083 -1055 -1994 -1071 -2022 l-29 -53 709 0 709 0 173 340 173 340 1341 0 1340 0 170 -340 170 -340 708 0 708 0 -36 68 c-19 37 -498 950 -1062 2030 l-1027 1962 -963 0 c-529 0 -964 -3 -966 -7z m1467 -1704 c213 -418 386 -762 384 -765 -3 -2 -406 -3 -896 -2 l-891 3 387 762 387 762 121 1 121 0 387 -761z"/>
<path d="M19227 6958 c11 -13 536 -605 1167 -1317 l1146 -1294 0 -631 c0 -347 3 -742 7 -878 l6 -248 -6396 0 -6397 0 0 -517 0 -518 33 60 c19 33 132 246 251 473 l218 412 237 0 237 0 185 -352 c101 -194 219 -419 261 -500 l78 -148 -173 0 -173 0 -42 85 -42 85 -332 -2 -333 -3 -43 -83 -43 -82 -159 0 -160 0 0 -125 0 -125 7040 0 7040 0 0 835 c0 550 -3 835 -10 835 -7 0 -10 246 -10 718 l0 717 1098 1296 c603 712 1103 1303 1111 1312 13 16 -40 17 -796 17 l-810 0 -629 -809 c-346 -445 -632 -809 -636 -808 -3 1 -301 365 -662 810 l-657 807 -816 0 -816 0 20 -22z m-6497 -4459 c93 -15 159 -55 190 -114 20 -39 25 -67 28 -147 l4 -98 -150 0 -149 0 -7 38 c-12 76 -14 77 -312 77 l-264 0 -25 -26 c-36 -36 -44 -81 -45 -247 0 -169 9 -199 66 -227 35 -17 64 -19 269 -19 299 0 325 8 325 103 l0 41 155 0 155 0 0 -88 c0 -110 -19 -178 -62 -219 -74 -72 -168 -86 -559 -85 -398 1 -506 17 -577 85 -19 18 -40 48 -48 67 -45 105 -43 633 2 722 45 90 103 119 289 141 72 9 656 6 715 -4z m3120 1 c36 -6 90 -23 120 -38 109 -55 136 -164 127 -521 -5 -229 -14 -284 -59 -351 -30 -44 -96 -77 -183 -91 -95 -16 -785 -16 -880 0 -205 34 -244 113 -245 496 0 222 10 305 45 381 28 64 89 103 185 120 83 15 799 18 890 4z m6668 -14 c106 -35 152 -107 152 -243 l0 -63 -145 0 -144 0 -7 36 c-12 63 -21 65 -304 62 -236 -3 -253 -4 -266 -22 -21 -29 -18 -80 6 -101 17 -16 49 -19 233 -27 478 -19 554 -31 612 -100 62 -74 71 -309 15 -418 -22 -43 -67 -80 -120 -100 -49 -19 -711 -27 -824 -10 -180 26 -236 87 -236 258 l0 72 145 0 145 0 0 -30 c0 -19 9 -40 23 -54 21 -21 35 -23 165 -30 181 -9 389 1 420 20 18 12 22 24 22 63 0 32 -5 53 -16 62 -11 9 -69 16 -188 21 -474 21 -533 26 -584 48 -96 42 -123 98 -123 260 0 163 32 239 116 280 72 35 122 39 495 36 305 -2 362 -5 408 -20z m-11936 -313 c4 -359 7 -375 65 -402 86 -40 515 -35 572 6 46 35 50 64 50 406 l1 317 155 0 155 0 0 -277 c-1 -371 -11 -506 -43 -577 -29 -64 -84 -108 -161 -132 -70 -21 -364 -36 -571 -29 -287 10 -377 30 -444 97 -71 71 -74 89 -79 531 l-4 387 150 0 150 0 4 -327z m3636 200 l-3 -128 -222 -3 -223 -2 0 -370 0 -370 -160 0 -160 0 0 370 0 370 -220 0 -220 0 0 130 0 130 605 0 606 0 -3 -127z m392 -373 l0 -500 -160 0 -160 0 0 500 0 500 160 0 160 0 0 -500z m2408 125 c157 -223 270 -375 279 -375 15 0 15 38 9 375 l-7 375 156 0 155 0 0 -500 0 -500 -264 0 -264 0 -264 375 c-171 243 -268 374 -278 372 -13 -2 -15 -50 -11 -375 l3 -372 -156 0 -156 0 0 500 0 500 268 0 267 0 263 -375z m1842 255 l0 -120 -405 0 -405 0 0 -70 0 -70 385 0 385 0 0 -110 0 -110 -385 0 -385 0 0 -80 0 -80 405 0 405 0 0 -120 0 -120 -555 0 -555 0 0 500 0 500 555 0 555 0 0 -120z m1210 0 l0 -120 -405 0 -405 0 0 -70 0 -70 385 0 385 0 0 -110 0 -110 -385 0 -385 0 0 -80 0 -80 405 0 405 0 0 -120 0 -120 -555 0 -555 0 0 500 0 500 555 0 555 0 0 -120z m1169 111 c58 -12 122 -58 146 -106 17 -33 21 -65 23 -184 3 -91 0 -159 -8 -186 -14 -52 -60 -98 -115 -116 l-40 -13 38 -8 c21 -4 47 -13 57 -18 48 -25 74 -143 63 -282 l-6 -78 -148 0 -149 0 0 90 c0 95 -14 142 -45 154 -9 3 -145 6 -301 6 l-284 0 0 -125 0 -125 -150 0 -150 0 0 500 0 500 513 0 c281 -1 532 -5 556 -9z"/>
<path d="M15102 2235 c-54 -24 -66 -66 -67 -240 0 -236 6 -241 282 -251 207 -7 388 6 426 30 43 29 52 68 51 226 0 168 -13 212 -70 236 -49 20 -575 19 -622 -1z"/>
<path d="M20472 2128 l3 -123 293 1 c285 1 294 1 314 22 16 16 23 37 26 82 5 71 -9 113 -44 129 -17 7 -119 11 -310 11 l-285 0 3 -122z"/>
<path d="M4850 6701 c-151 -33 -268 -92 -398 -200 -84 -70 -122 -130 -122 -192 0 -43 5 -54 55 -113 l55 -64 -100 -87 -100 -87 -68 59 -67 60 -497 -480 -497 -481 56 -63 c49 -57 54 -66 41 -81 -8 -9 -43 -51 -78 -92 -35 -41 -65 -77 -67 -79 -1 -2 -26 12 -55 31 -68 45 -120 62 -174 55 -61 -7 -114 -44 -184 -132 -156 -197 -215 -394 -191 -636 36 -365 203 -631 525 -833 272 -171 619 -194 891 -58 132 66 280 193 312 269 9 22 15 66 15 103 0 85 15 118 74 165 27 21 57 47 67 58 16 19 23 19 85 9 l67 -10 132 136 131 137 839 -835 c1374 -1369 1742 -1715 2035 -1915 l170 -115 154 0 154 0 0 130 0 131 -77 121 c-95 151 -124 185 -369 440 -304 316 -683 684 -1840 1785 -215 204 -451 438 -524 519 l-134 147 142 136 142 136 -26 33 -27 34 74 74 c90 91 136 112 204 95 42 -10 51 -9 92 11 63 31 166 128 224 211 54 77 101 190 125 300 24 108 21 301 -5 402 -90 341 -420 652 -799 752 -133 35 -338 41 -462 14z"/>
<path d="M9402 2138 c-85 -162 -122 -236 -122 -243 0 -3 99 -5 221 -5 l221 0 -98 190 c-91 176 -100 190 -125 190 -25 0 -34 -12 -97 -132z"/>
<path d="M1340 2045 c-94 -30 -196 -135 -221 -227 -11 -44 -28 -329 -29 -490 l0 -98 2365 0 2365 0 0 33 c-2 173 -22 502 -34 545 -29 107 -84 174 -181 219 l-60 28 -2080 2 c-1770 1 -2087 0 -2125 -12z"/>
<path d="M16354 881 c-169 -14 -187 -41 -182 -273 3 -130 5 -150 24 -175 40 -54 60 -58 289 -58 287 0 311 10 322 135 l6 60 -82 0 c-78 0 -81 -1 -81 -23 0 -42 -16 -47 -157 -47 -173 0 -176 3 -171 131 4 119 8 123 141 127 124 4 171 -5 175 -36 3 -21 9 -22 84 -22 l81 0 -5 49 c-6 61 -29 98 -72 116 -41 17 -249 26 -372 16z"/>
<path d="M17849 881 c-141 -13 -162 -47 -162 -256 0 -162 11 -203 65 -232 29 -16 60 -18 273 -18 262 0 278 3 319 58 19 26 21 42 21 190 0 249 -6 254 -272 261 -92 2 -202 1 -244 -3z m347 -145 c16 -12 20 -29 22 -98 3 -72 1 -87 -16 -108 -20 -25 -22 -25 -175 -25 -116 0 -158 3 -170 14 -14 11 -17 32 -17 104 0 130 -4 127 185 127 115 0 156 -3 171 -14z"/>
<path d="M20270 881 c-143 -14 -155 -34 -155 -258 0 -148 2 -164 21 -190 41 -55 57 -58 319 -58 213 0 244 2 273 18 54 29 65 70 66 232 0 119 -3 146 -19 180 -32 65 -63 74 -260 79 -94 2 -204 1 -245 -3z m352 -148 c25 -23 27 -193 1 -214 -12 -11 -54 -14 -170 -14 -153 0 -155 0 -175 25 -17 21 -19 36 -16 106 2 49 8 87 17 97 20 25 315 25 343 0z"/>
<path d="M21700 881 c-36 -4 -75 -13 -86 -19 -37 -20 -57 -76 -52 -153 5 -97 27 -118 134 -130 44 -4 127 -8 185 -8 117 -1 143 -11 137 -52 l-3 -24 -148 -3 -147 -3 -12 26 c-11 23 -16 25 -85 25 l-74 0 7 -47 c9 -63 18 -79 57 -100 28 -16 61 -18 254 -18 209 0 223 1 250 21 73 54 70 224 -5 267 -27 16 -63 20 -205 26 -96 4 -179 11 -185 15 -7 4 -12 18 -12 30 0 31 20 36 148 36 105 0 142 -9 142 -35 0 -12 16 -15 75 -15 l75 0 0 35 c0 51 -26 94 -66 111 -41 17 -284 27 -384 15z"/>
<path d="M14887 753 c-37 -71 -96 -183 -132 -250 l-65 -123 89 0 88 0 18 40 18 40 168 0 169 0 20 -40 20 -40 86 0 86 0 -103 198 c-56 108 -115 221 -131 250 l-29 52 -117 0 -117 0 -68 -127z m247 -82 c25 -49 46 -92 46 -95 0 -3 -47 -6 -105 -6 -62 0 -105 4 -105 10 0 5 19 48 42 95 28 56 48 85 59 85 11 0 33 -31 63 -89z"/>
<path d="M15460 708 c1 -207 8 -251 46 -289 39 -39 101 -49 288 -49 173 1 230 10 269 48 40 38 47 78 47 280 l0 182 -74 0 -75 0 -3 -170 c-4 -217 7 -205 -173 -205 -179 0 -169 -12 -174 205 l-3 170 -74 0 -74 0 0 -172z"/>
<path d="M16824 866 c-3 -7 -4 -35 -2 -62 l3 -49 113 -3 112 -3 0 -184 0 -185 80 0 80 0 0 185 0 185 110 0 110 0 0 65 0 65 -300 0 c-246 0 -302 -2 -306 -14z"/>
<path d="M17467 874 c-4 -4 -7 -117 -7 -251 l0 -243 85 0 85 0 -2 248 -3 247 -75 3 c-42 1 -79 0 -83 -4z"/>
<path d="M18430 630 l0 -250 80 0 80 0 0 186 c0 116 4 183 10 179 5 -3 66 -87 135 -185 l126 -180 135 0 134 0 0 250 0 250 -81 0 -82 0 5 -185 c4 -102 3 -187 -1 -189 -4 -3 -67 80 -140 185 l-132 189 -134 0 -135 0 0 -250z"/>
<path d="M19387 874 c-4 -4 -7 -117 -7 -251 l0 -243 85 0 85 0 0 90 0 90 170 0 170 0 0 -90 0 -90 80 0 80 0 0 250 0 250 -80 0 -80 0 0 -90 0 -90 -170 0 -169 0 -3 88 -3 87 -75 3 c-42 1 -79 0 -83 -4z"/>
<path d="M20853 865 c-12 -32 3 -380 18 -410 35 -73 109 -90 367 -83 254 7 256 9 260 301 l3 207 -75 0 -76 0 0 -164 c0 -210 1 -208 -128 -214 -95 -5 -167 2 -192 18 -12 7 -16 43 -20 182 l-5 173 -73 3 c-59 2 -73 0 -79 -13z"/>
<path d="M22220 630 l0 -250 280 0 281 0 -3 58 -3 57 -202 3 -203 2 0 40 0 40 190 0 190 0 0 55 0 55 -190 0 -190 0 0 35 0 35 200 0 200 0 0 60 0 60 -275 0 -275 0 0 -250z"/>
<path d="M8328 799 c-27 -15 -23 -57 7 -71 36 -16 75 3 75 36 0 38 -45 57 -82 35z"/>
<path d="M12018 799 c-27 -15 -23 -57 7 -71 53 -24 108 29 66 64 -26 20 -47 22 -73 7z"/>
<path d="M1165 786 c-66 -29 -95 -92 -95 -204 0 -135 51 -202 158 -210 124 -9 186 62 186 213 0 103 -27 166 -85 195 -44 23 -119 26 -164 6z m117 -123 c11 -87 -1 -223 -22 -248 -16 -20 -37 -8 -49 27 -14 40 -14 248 0 285 27 71 57 43 71 -64z"/>
<path d="M1528 779 c-78 -40 -90 -144 -24 -192 7 -4 3 -13 -10 -25 -52 -42 -54 -99 -6 -145 36 -34 73 -47 134 -47 143 0 219 124 134 218 -34 37 -34 37 -15 61 39 47 19 105 -48 140 -35 18 -123 13 -165 -10z m136 -23 c38 -16 52 -50 36 -90 -11 -31 -12 -31 -76 -10 -82 27 -106 81 -45 103 36 13 47 13 85 -3z m-47 -221 c27 -8 58 -24 68 -34 26 -30 13 -69 -30 -87 -86 -36 -175 41 -135 117 13 23 30 24 97 4z"/>
<path d="M1979 770 c-14 -16 -45 -33 -68 -40 -34 -9 -41 -15 -41 -35 0 -28 20 -32 64 -15 l26 10 0 -155 0 -155 60 0 60 0 0 210 0 210 -37 -1 c-28 -1 -45 -9 -64 -29z"/>
<path d="M2549 770 c-14 -16 -45 -33 -68 -40 -34 -9 -41 -15 -41 -35 0 -28 20 -32 64 -15 l26 10 0 -155 0 -155 60 0 60 0 0 210 0 210 -37 -1 c-28 -1 -45 -9 -64 -29z"/>
<path d="M2887 661 c-72 -103 -97 -147 -97 -170 l0 -31 75 0 75 0 0 -40 0 -40 60 0 60 0 0 40 c0 36 3 40 25 40 34 0 37 47 3 52 -22 3 -23 6 -26 146 l-3 142 -37 0 c-37 0 -39 -2 -135 -139z m53 -81 l0 -70 -45 0 c-25 0 -45 3 -45 7 0 8 81 133 86 133 2 0 4 -31 4 -70z"/>
<path d="M3243 790 c-40 -16 -83 -110 -50 -110 8 0 22 -3 31 -6 13 -5 16 1 16 28 0 19 5 39 12 46 16 16 80 16 96 0 13 -13 16 -76 4 -94 -11 -18 -48 -34 -76 -34 -21 0 -26 -5 -26 -25 0 -22 4 -25 35 -25 25 0 44 -8 62 -26 22 -22 25 -32 20 -67 -6 -47 -27 -67 -70 -67 -51 0 -67 16 -67 66 0 44 -1 45 -27 42 -24 -2 -29 -8 -31 -36 -7 -67 52 -112 146 -112 75 0 110 10 142 40 26 24 30 35 30 78 0 44 -4 54 -31 76 -17 14 -35 26 -40 26 -6 0 6 15 25 34 26 24 36 42 36 64 0 77 -48 112 -152 111 -34 0 -73 -4 -85 -9z"/>
<path d="M3837 661 c-72 -103 -97 -147 -97 -170 l0 -31 75 0 75 0 0 -40 0 -40 60 0 60 0 0 40 c0 36 3 40 25 40 34 0 37 47 3 52 -22 3 -23 6 -26 146 l-3 142 -37 0 c-37 0 -39 -2 -135 -139z m53 -81 l0 -70 -45 0 c-25 0 -45 3 -45 7 0 8 81 133 86 133 2 0 4 -31 4 -70z"/>
<path d="M4193 790 c-40 -16 -83 -110 -50 -110 8 0 22 -3 31 -6 13 -5 16 1 16 28 0 19 5 39 12 46 16 16 80 16 96 0 13 -13 16 -76 4 -94 -11 -18 -48 -34 -76 -34 -21 0 -26 -5 -26 -25 0 -22 4 -25 35 -25 25 0 44 -8 62 -26 22 -22 25 -32 20 -67 -6 -47 -27 -67 -70 -67 -51 0 -67 16 -67 66 0 44 -1 45 -27 42 -24 -2 -29 -8 -31 -36 -7 -67 52 -112 146 -112 75 0 110 10 142 40 26 24 30 35 30 78 0 44 -4 54 -31 76 -17 14 -35 26 -40 26 -6 0 6 15 25 34 26 24 36 42 36 64 0 77 -48 112 -152 111 -34 0 -73 -4 -85 -9z"/>
<path d="M4620 789 c-72 -29 -113 -105 -114 -209 -1 -139 60 -210 181 -210 95 0 158 70 150 164 -4 42 -10 55 -41 83 -28 26 -44 33 -77 33 -22 0 -49 -5 -60 -10 -17 -9 -19 -7 -19 18 0 72 42 122 87 105 24 -9 33 -23 33 -55 0 -23 4 -28 24 -28 14 0 28 5 31 10 12 20 -16 80 -45 95 -33 17 -112 19 -150 4z m87 -209 c24 -48 10 -161 -22 -174 -7 -2 -21 1 -31 8 -26 20 -33 136 -10 172 21 30 46 28 63 -6z"/>
<path d="M4961 783 c-68 -34 -90 -112 -48 -173 l22 -34 -27 -27 c-74 -73 9 -179 140 -179 104 0 172 55 172 137 0 41 -5 51 -39 83 -38 36 -38 38 -20 53 27 23 35 66 18 96 -31 56 -146 79 -218 44z m151 -40 c21 -19 24 -75 5 -91 -17 -15 -108 12 -132 38 -52 57 68 107 127 53z m5 -249 c33 -51 -34 -104 -108 -84 -62 17 -88 78 -54 127 l15 21 66 -21 c40 -13 72 -31 81 -43z"/>
<path d="M5777 553 c-53 -137 -99 -256 -103 -265 -5 -14 -1 -18 14 -18 12 0 24 5 27 10 17 27 202 510 197 515 -3 3 -13 5 -22 5 -13 0 -41 -61 -113 -247z"/>
<path d="M6160 590 c0 -178 2 -210 15 -210 8 0 19 9 25 20 11 20 11 20 48 -5 71 -48 156 -25 188 51 16 38 19 141 5 177 -24 61 -98 87 -149 51 l-22 -15 0 70 0 71 -55 0 -55 0 0 -210z m174 27 c9 -35 7 -143 -4 -172 -14 -37 -41 -29 -53 15 -12 46 -5 154 12 173 16 20 37 12 45 -16z"/>
<path d="M10475 786 c-175 -76 -188 -314 -22 -395 69 -34 229 -23 244 16 9 24 -4 26 -57 8 -62 -21 -131 -16 -169 12 -64 47 -89 159 -52 238 57 123 206 142 279 35 38 -56 24 -176 -24 -194 -28 -11 -31 2 -18 76 19 107 19 105 -21 100 -19 -2 -35 -9 -35 -14 0 -5 -7 -2 -16 6 -19 19 -25 20 -59 4 -35 -16 -65 -77 -65 -131 0 -64 16 -74 124 -75 101 -1 136 11 166 60 55 90 20 197 -82 249 -44 22 -147 25 -193 5z m113 -167 c4 -37 -22 -114 -38 -114 -11 0 -14 10 -13 40 6 84 43 140 51 74z"/>
<path d="M12170 590 l0 -210 55 0 55 0 0 210 0 210 -55 0 -55 0 0 -210z"/>
<path d="M8160 760 c-35 -14 -46 -23 -48 -44 -2 -18 -9 -26 -23 -26 -12 0 -19 -7 -19 -20 0 -13 7 -20 20 -20 19 0 20 -7 20 -117 0 -65 4 -123 8 -130 4 -6 20 -17 36 -23 54 -20 138 13 106 43 -10 9 -14 9 -17 -1 -13 -36 -23 12 -23 114 l0 114 25 0 c18 0 25 5 25 20 0 15 -7 20 -25 20 -23 0 -25 4 -25 45 0 50 2 50 -60 25z"/>
<path d="M11008 760 c-9 -6 -19 -24 -23 -40 -6 -28 -10 -30 -51 -30 -60 0 -102 -23 -120 -66 -17 -40 -11 -69 19 -101 l20 -23 -26 -24 c-32 -30 -35 -71 -7 -88 19 -12 19 -13 -1 -34 -48 -51 -2 -84 118 -84 90 0 157 20 173 51 20 35 12 86 -16 108 -22 18 -41 21 -115 21 -48 0 -90 4 -93 9 -10 15 21 32 47 26 34 -9 101 11 134 39 20 18 27 32 27 61 0 32 -6 44 -37 70 -44 38 -47 50 -11 41 30 -8 54 8 54 35 0 32 -56 50 -92 29z m-38 -119 c11 -22 13 -80 4 -105 -8 -21 -40 -21 -48 0 -3 9 -6 33 -6 54 0 21 3 45 6 54 8 22 31 20 44 -3z m55 -302 c28 -28 -103 -56 -144 -30 -19 12 -7 38 21 44 33 7 110 -1 123 -14z"/>
<path d="M6595 695 c-5 -2 -22 -6 -37 -9 -37 -8 -58 -32 -58 -66 0 -22 5 -29 25 -32 23 -5 25 -2 25 29 0 27 5 35 26 43 29 11 58 0 68 -26 9 -24 -26 -58 -73 -72 -61 -19 -91 -53 -91 -106 0 -36 5 -48 26 -65 31 -24 83 -27 122 -7 24 12 30 12 47 0 36 -26 141 -11 129 19 -3 8 -13 14 -22 13 -15 -1 -18 15 -22 122 -4 110 -7 125 -25 135 -35 21 -109 32 -140 22z m53 -206 c-5 -66 -23 -91 -45 -62 -19 25 -16 67 8 97 33 41 42 33 37 -35z"/>
<path d="M7182 691 c-18 -5 -42 -17 -52 -26 -23 -21 -27 -75 -6 -75 8 0 22 -3 31 -7 14 -5 16 -2 10 15 -10 32 2 59 30 66 31 8 53 -1 60 -25 10 -30 -11 -55 -62 -74 -70 -26 -103 -60 -103 -107 0 -55 35 -88 92 -88 24 0 51 7 62 15 16 12 21 12 40 0 39 -28 142 -12 130 20 -3 8 -11 12 -16 9 -20 -13 -28 23 -28 133 0 106 -1 113 -23 127 -28 19 -121 28 -165 17z m78 -195 c0 -59 -22 -98 -44 -76 -18 18 -13 86 8 109 29 32 36 26 36 -33z"/>
<path d="M7887 686 c-52 -19 -73 -40 -93 -92 -20 -52 -14 -129 13 -170 47 -72 203 -73 242 -1 19 35 11 81 -15 85 -18 3 -20 -1 -16 -28 7 -46 -21 -82 -61 -78 -42 4 -57 35 -57 125 0 83 10 117 41 134 20 10 25 9 41 -11 10 -12 18 -35 18 -51 0 -27 1 -28 25 -17 54 25 12 103 -60 113 -23 3 -56 -1 -78 -9z"/>
<path d="M11490 689 c-13 -6 -32 -17 -41 -25 -14 -12 -18 -12 -34 6 -24 27 -84 27 -119 -1 l-26 -20 0 20 c0 19 -6 21 -60 21 l-60 0 0 -155 0 -155 60 0 60 0 0 114 c0 91 3 118 16 130 8 9 20 14 25 11 5 -4 9 -62 9 -131 l0 -124 54 0 54 0 3 115 c3 89 8 118 21 131 31 31 38 8 38 -122 l0 -124 55 0 55 0 0 138 c0 75 -4 142 -8 148 -9 14 -47 34 -64 33 -7 0 -24 -5 -38 -10z"/>
<path d="M11736 691 c-71 -15 -102 -87 -43 -102 26 -7 27 -5 27 27 0 42 29 62 67 45 19 -9 24 -18 21 -39 -2 -22 -15 -33 -73 -62 -84 -42 -104 -72 -86 -130 17 -56 97 -81 148 -45 19 13 24 13 50 -1 22 -13 40 -15 76 -10 49 7 64 29 27 39 -18 5 -20 15 -22 122 -3 113 -4 119 -28 136 -29 22 -109 31 -164 20z m63 -267 c-18 -22 -39 2 -39 47 0 27 7 46 23 62 l22 22 3 -58 c2 -35 -2 -64 -9 -73z"/>
<path d="M12620 691 c-78 -25 -114 -78 -114 -165 0 -105 49 -156 151 -156 66 0 108 27 124 80 11 35 10 43 -2 51 -27 17 -39 10 -39 -24 0 -46 -25 -77 -60 -77 -35 0 -49 21 -57 89 -11 91 17 181 56 181 20 0 41 -33 41 -66 l0 -35 29 15 c22 12 27 20 24 40 -10 53 -89 88 -153 67z"/>
<path d="M13500 689 c-13 -6 -32 -17 -41 -25 -14 -12 -18 -12 -34 6 -24 27 -84 27 -119 -1 l-26 -20 0 21 c0 19 -5 21 -57 18 l-58 -3 -3 -152 -3 -153 60 0 59 0 4 120 c2 92 6 123 18 130 8 5 18 6 22 4 4 -3 8 -61 8 -130 l0 -124 60 0 60 0 0 113 c0 79 4 119 13 132 28 37 37 7 37 -121 l0 -124 60 0 60 0 0 125 c0 137 -11 178 -52 189 -29 7 -38 7 -68 -5z"/>
<path d="M6790 687 c0 -2 27 -75 60 -161 33 -87 60 -163 60 -171 0 -7 -9 -23 -19 -36 -18 -22 -20 -23 -38 -7 -13 12 -23 14 -36 6 -18 -9 -18 -11 -1 -29 24 -26 75 -25 101 4 21 22 163 358 163 384 0 8 -8 13 -17 11 -12 -2 -30 -33 -53 -91 l-34 -88 -31 88 -30 88 -62 3 c-35 2 -63 1 -63 -1z"/>
<path d="M7440 555 c0 -133 1 -137 26 -162 21 -21 32 -25 66 -20 22 3 51 16 64 28 l24 22 0 -21 c0 -20 5 -22 55 -22 l55 0 0 155 0 155 -55 0 -55 0 0 -99 c0 -98 -10 -149 -33 -163 -23 -14 -27 6 -27 133 l0 129 -60 0 -60 0 0 -135z"/>
<path d="M8300 535 l0 -155 60 0 60 0 0 155 0 155 -60 0 -60 0 0 -155z"/>
<path d="M8529 673 c-78 -48 -89 -197 -20 -267 26 -26 39 -30 93 -34 111 -6 168 47 168 156 0 111 -49 162 -155 162 -38 0 -70 -7 -86 -17z m111 -32 c5 -11 10 -61 10 -111 0 -50 -5 -100 -10 -111 -28 -52 -60 7 -60 111 0 104 32 163 60 111z"/>
<path d="M8820 535 l0 -155 54 0 54 0 4 109 c2 90 6 113 22 130 10 11 23 18 27 15 5 -3 9 -61 9 -130 l0 -124 60 0 60 0 0 135 c0 122 -2 137 -20 155 -33 33 -137 18 -153 -22 -3 -7 -6 -1 -6 15 -1 26 -3 27 -56 27 l-55 0 0 -155z"/>
<path d="M9228 675 c-45 -25 -72 -80 -72 -149 0 -104 49 -156 149 -156 74 0 125 36 125 88 0 11 -7 23 -16 26 -23 9 -24 8 -24 -19 0 -30 -32 -65 -60 -65 -24 0 -49 36 -57 84 l-6 36 82 0 81 0 0 36 c0 49 -27 102 -61 119 -36 19 -106 19 -141 0z m97 -40 c3 -14 7 -36 10 -50 5 -23 3 -25 -31 -25 l-37 0 7 42 c4 22 9 45 12 50 11 17 34 7 39 -17z"/>
<path d="M9530 664 c-44 -38 -60 -75 -60 -141 0 -70 14 -100 60 -131 30 -20 44 -23 98 -20 50 3 67 9 86 28 25 26 43 80 27 80 -5 0 -16 3 -25 6 -12 5 -16 -1 -16 -23 0 -39 -31 -67 -64 -59 -29 7 -41 26 -49 79 l-6 37 86 0 85 0 -7 43 c-16 92 -52 127 -131 127 -42 0 -59 -5 -84 -26z m104 -12 c3 -5 8 -28 12 -50 l7 -42 -37 0 c-34 0 -36 2 -31 25 3 14 7 36 10 50 5 24 28 34 39 17z"/>
<path d="M9797 683 c-4 -3 -7 -73 -7 -155 l0 -148 60 0 60 0 0 104 c0 106 10 156 31 156 7 0 9 -12 5 -35 l-7 -35 40 0 c38 0 40 2 47 36 10 52 -8 84 -47 84 -18 0 -41 -7 -51 -17 -17 -15 -18 -15 -18 0 0 14 -10 17 -53 17 -30 0 -57 -3 -60 -7z"/>
<path d="M10114 680 c-29 -11 -64 -58 -64 -84 0 -38 34 -77 95 -109 49 -26 60 -37 60 -57 0 -20 -6 -26 -27 -28 -32 -4 -78 35 -78 66 0 15 -6 18 -30 14 -39 -6 -39 -31 -1 -74 29 -32 32 -33 109 -33 71 0 83 3 106 24 61 58 38 126 -64 181 -46 25 -65 41 -65 55 0 16 7 20 35 20 28 0 37 -5 48 -27 9 -19 21 -28 38 -28 41 0 26 52 -23 78 -25 14 -108 15 -139 2z"/>
<path d="M11997 683 c-4 -3 -7 -73 -7 -155 l0 -148 60 0 60 0 0 155 0 155 -53 0 c-30 0 -57 -3 -60 -7z"/>
<path d="M12872 670 c-41 -25 -62 -73 -62 -142 0 -109 57 -162 168 -156 54 4 67 8 93 34 70 70 58 221 -21 268 -41 23 -136 21 -178 -4z m117 -47 c22 -79 6 -223 -24 -223 -25 0 -35 37 -35 130 0 50 5 100 10 111 17 30 38 22 49 -18z"/>
<path d="M12353 454 c-15 -24 -15 -29 -2 -53 28 -51 99 -35 99 22 0 40 -15 57 -52 57 -19 0 -33 -8 -45 -26z"/>
</g>
</svg>